<svg width="191" height="57" viewBox="0 0 191 57" fill="none" xmlns="http://www.w3.org/2000/svg">
<path d="M39.1183 37.0938C39.1183 37.0678 39.1183 37.0391 39.1157 37.013C39.1105 36.9245 39.1027 36.8359 39.0923 36.7499C39.0818 36.6222 39.0636 36.4919 39.0428 36.3642C39.0271 36.2757 39.0115 36.1871 38.9933 36.0985C38.7952 35.124 38.3809 34.1625 37.7478 33.2375C37.6983 33.1671 37.6488 33.0968 37.5992 33.029C37.5888 33.0134 37.5784 33.0004 37.568 32.9873C36.6508 31.734 35.3271 30.5563 33.5944 29.5219C33.5709 29.5088 33.5501 29.4958 33.5266 29.4828C32.5104 28.8783 31.4031 28.3545 30.2331 27.9142C30.1993 27.9012 30.168 27.8881 30.1341 27.8777C30.0898 27.8621 30.0455 27.849 30.0012 27.8334C28.6255 27.3253 27.1637 26.9214 25.655 26.6348C25.4648 26.5957 25.2694 26.5619 25.0766 26.528L24.7952 26.4811C24.7352 26.4733 24.6779 26.4629 24.618 26.455C24.3444 26.4107 24.0682 26.3717 23.792 26.3352C23.6357 26.3169 23.4767 26.2961 23.3204 26.2779C22.3876 26.171 21.4443 26.1033 20.5011 26.0772C20.3943 26.072 20.2874 26.0694 20.1806 26.0694C20.0034 26.0642 19.8236 26.0616 19.6464 26.0616H19.4979C19.2791 26.0616 19.0576 26.0642 18.8387 26.0694C17.106 26.1007 15.3784 26.2674 13.7082 26.5697C13.6639 26.5749 13.6196 26.5827 13.5753 26.5931C12.1214 26.8589 10.7091 27.2289 9.37245 27.6979C9.26562 27.737 9.15879 27.7735 9.05456 27.8152C7.95238 28.219 6.90231 28.6959 5.92781 29.2431C4.29147 30.1602 2.99387 31.2051 2.035 32.3229C2.02979 32.3281 2.02457 32.3359 2.01936 32.3412C0.818168 33.7456 0.153732 35.2647 0.0234507 36.7994C0.0182394 36.8671 0.0130281 36.9349 0.0104225 37.0026C0.00521125 37.086 0.00260563 37.172 0.00260563 37.2554C1.94135e-09 37.2658 1.94135e-09 37.2736 0.00260563 37.2814C-0.00260563 37.4247 -5.82404e-09 37.568 0.0104225 37.7088V37.7218C0.161549 40.4473 1.99852 43.1519 5.53436 45.2651C9.38809 47.5685 14.5081 48.7254 19.6308 48.7254C24.7535 48.7254 29.4176 47.6701 33.2009 45.5465C36.7993 43.5271 38.764 40.898 39.0818 38.2116C39.1001 38.0787 39.1105 37.9485 39.1157 37.8156C39.1209 37.7583 39.1235 37.7009 39.1235 37.6462C39.1287 37.5628 39.1287 37.4795 39.1287 37.3961C39.1287 37.2945 39.1287 37.1954 39.1183 37.0938Z" fill="black"/>
<path d="M39.1235 38.2118C38.9359 44.6242 35.0301 51.0419 29.2013 54.2338C16.2487 61.4149 0.469025 52.3838 0.052124 37.7454V37.7219C0.203251 40.4474 2.04022 43.1521 5.57606 45.2652C9.42979 47.5686 14.5498 48.7255 19.6725 48.7255C24.7952 48.7255 29.4593 47.6702 33.2426 45.5466C36.841 43.5273 38.8057 40.8982 39.1235 38.2118Z" fill="url(#paint0_linear_184_129)"/>
<path d="M19.6699 27.625C19.8314 27.625 19.9956 27.625 20.1571 27.6328H20.1806H20.204C20.2848 27.6328 20.3682 27.6328 20.449 27.638H20.4646H20.4802C21.3688 27.6614 22.2729 27.7266 23.1614 27.8282C23.237 27.836 23.31 27.8464 23.3855 27.8543C23.4637 27.8647 23.5419 27.8725 23.62 27.8829C23.9171 27.922 24.162 27.9585 24.3887 27.995H24.4121L24.4356 28.0028L24.4851 28.0106C24.5164 28.0158 24.5476 28.021 24.5789 28.0236L24.829 28.0653L24.8629 28.0705C25.0271 28.0992 25.1938 28.1279 25.3554 28.1617H25.3658L25.3788 28.1669C26.8041 28.4379 28.1825 28.8157 29.4853 29.2978C29.5192 29.3108 29.5504 29.3212 29.5843 29.3317L29.6104 29.3395L29.6495 29.3525H29.6599L29.6964 29.3707C30.7959 29.785 31.8225 30.2723 32.7423 30.8195L32.7632 30.8325L32.784 30.8429C32.7971 30.8507 32.8101 30.8585 32.8231 30.8664C34.3292 31.7679 35.5069 32.7893 36.3225 33.9045L36.3459 33.9358L36.3511 33.941H36.3537C36.3954 34.0009 36.4371 34.0609 36.4788 34.1208C36.9843 34.8608 37.3204 35.6269 37.4768 36.4059C37.4924 36.4763 37.5028 36.5466 37.5158 36.617C37.5315 36.7186 37.5419 36.802 37.5497 36.8697V36.901L37.5549 36.9323C37.5627 36.987 37.5654 37.0417 37.5706 37.099V37.1485L37.5758 37.2085C37.581 37.2606 37.581 37.3179 37.581 37.3909C37.581 37.443 37.581 37.4925 37.581 37.5446V37.5941L37.5784 37.6436C37.5784 37.6514 37.5784 37.6618 37.5784 37.6723V37.7114L37.5732 37.753C37.5706 37.8416 37.5628 37.9224 37.5523 37.998V38.0136L37.5497 38.0292C37.2813 40.3066 35.4704 42.4927 32.4557 44.1837C29.0345 46.1041 24.4851 47.162 19.6516 47.162C14.8182 47.162 9.79976 45.9816 6.35772 43.9232C3.429 42.1722 1.74055 39.9548 1.59463 37.6749V37.6514L1.58942 37.5941C1.58682 37.5498 1.58421 37.5055 1.58421 37.4586V37.4482V37.3101L1.59463 37.0547V37.0495C1.59463 37.0078 1.59724 36.9661 1.59984 36.9323C1.70407 35.705 2.24865 34.5064 3.21533 33.3704C3.22576 33.3574 3.23618 33.3469 3.244 33.3365C4.10907 32.3307 5.27378 31.4109 6.71209 30.6058C7.598 30.1081 8.57512 29.6626 9.61216 29.2821L9.633 29.2743L9.65385 29.2665C9.70856 29.2431 9.76589 29.2248 9.82321 29.204L9.91441 29.1701C11.1651 28.7324 12.4966 28.3806 13.875 28.1305L13.9141 28.1226L13.9323 28.1174H13.9583L14.0052 28.107C15.5843 27.8204 17.2258 27.6614 18.8934 27.6302C19.0993 27.625 19.3077 27.6224 19.5162 27.6224H19.6647M19.6699 26.0616H19.5214C19.3025 26.0616 19.081 26.0642 18.8621 26.0694C17.1294 26.1007 15.4019 26.2674 13.7317 26.5697C13.6874 26.5749 13.6431 26.5827 13.5988 26.5931C12.1448 26.8589 10.7326 27.2289 9.39589 27.6979C9.28906 27.737 9.18223 27.7735 9.078 27.8152C7.97582 28.219 6.92575 28.6959 5.95125 29.2431C4.31491 30.1602 3.01731 31.2051 2.05843 32.3229C2.05322 32.3281 2.04801 32.3359 2.0428 32.3412C0.841605 33.7456 0.17717 35.2647 0.0468882 36.7994C0.0416769 36.8671 0.0364656 36.9349 0.03386 37.0026C0.0286488 37.086 0.0260431 37.172 0.0260431 37.2554C0.0234375 37.2658 0.0234375 37.2736 0.0260431 37.2814C0.0208319 37.4247 0.0234375 37.568 0.03386 37.7088V37.7218C0.184987 40.4473 2.02196 43.1519 5.5578 45.2651C9.41152 47.5685 14.5316 48.7254 19.6543 48.7254C24.7769 48.7254 29.441 47.6701 33.2244 45.5465C36.8228 43.5271 38.7874 40.898 39.1053 38.2116C39.1235 38.0787 39.1339 37.9485 39.1392 37.8156C39.1444 37.7583 39.147 37.7009 39.147 37.6462C39.1522 37.5628 39.1522 37.4795 39.1522 37.3961C39.1522 37.2945 39.1522 37.1954 39.1418 37.0938C39.1418 37.0678 39.1418 37.0391 39.1392 37.013C39.1339 36.9245 39.1261 36.8359 39.1157 36.7499C39.1053 36.6222 39.087 36.4919 39.0662 36.3642C39.0506 36.2757 39.0349 36.1871 39.0167 36.0985C38.8187 35.124 38.4044 34.1625 37.7712 33.2375C37.7217 33.1671 37.6722 33.0968 37.6227 33.029C37.6123 33.0134 37.6018 33.0004 37.5914 32.9873C36.6742 31.734 35.3506 30.5563 33.6178 29.5219C33.5944 29.5088 33.5735 29.4958 33.5501 29.4828C32.5339 28.8783 31.4265 28.3545 30.2566 27.9142C30.2227 27.9012 30.1914 27.8881 30.1576 27.8777C30.1133 27.8621 30.069 27.849 30.0247 27.8334C28.6489 27.3253 27.1871 26.9214 25.6785 26.6348C25.4883 26.5957 25.2928 26.5619 25.1 26.528L24.8186 26.4811C24.7587 26.4733 24.7014 26.4629 24.6414 26.455C24.3678 26.4107 24.0916 26.3717 23.8154 26.3352C23.6591 26.3169 23.5002 26.2961 23.3438 26.2779C22.411 26.171 21.4678 26.1033 20.5245 26.0772C20.4177 26.072 20.3109 26.0694 20.204 26.0694C20.0269 26.0642 19.8471 26.0616 19.6699 26.0616Z" fill="white"/>
<path d="M39.1288 19.1202C39.689 -4.45033 3.13466 -7.16539 0.213747 16.228C-2.29808 34.4413 36.802 35.5305 39.1288 19.1228V19.1202ZM39.1236 19.227C39.1236 19.2088 39.1236 19.1906 39.1236 19.1749C39.1236 19.1932 39.1236 19.2088 39.1236 19.227Z" fill="url(#paint1_radial_184_129)"/>
<path d="M0.0417612 18.0441C0.0365499 18.1197 0.0287331 18.1952 0.0209162 18.2708C0.017442 18.2465 0.017442 18.1839 0.0209162 18.0832L0.0600007 17.4761C0.0600007 17.4761 0.0600007 17.4631 0.0600007 17.4552C0.13817 16.5224 0.312747 15.6131 0.581127 14.7376C0.622817 14.6099 0.633239 14.5786 0.667112 14.5291C0.674929 14.5291 0.682746 14.5291 0.690563 14.5291C0.695774 14.5526 0.695774 14.5838 0.695774 14.6073C0.680141 14.8079 0.63845 15.0294 0.557676 15.3082C0.289296 16.1941 0.112113 17.1061 0.0365499 18.0415M0.265845 19.7091C0.312747 19.1359 0.396127 18.5678 0.51338 18.0076C0.539437 17.8669 0.542042 17.7471 0.523803 17.6481C0.518591 17.6324 0.508169 17.6142 0.497746 17.6038C0.476901 17.6142 0.463873 17.6402 0.445634 17.7184C0.32838 18.2786 0.245 18.844 0.198099 19.4147C0.187677 19.5945 0.200705 19.7664 0.229367 19.8211C0.234578 19.8211 0.239789 19.8211 0.245 19.8211C0.258028 19.7925 0.260634 19.7769 0.268451 19.7065M0.992816 21.4888C1.03711 20.9129 1.11789 20.3371 1.22993 19.7664C1.25077 19.6231 1.24296 19.5059 1.19866 19.4069C1.14915 19.3339 1.11268 19.36 1.0788 19.4876C0.964154 20.0583 0.88338 20.6315 0.839084 21.2073C0.828661 21.4783 0.912042 21.5956 0.912042 21.5956C0.932887 21.619 0.971971 21.6399 0.99021 21.4914M2.22007 23.1954C2.26176 22.6144 2.33732 22.0333 2.44155 21.4497C2.45979 21.3038 2.43634 21.1865 2.36859 21.0927C2.29563 21.0249 2.24612 21.0562 2.21225 21.1839C2.10542 21.7649 2.02986 22.346 1.98817 22.9245C1.98296 23.159 2.07676 23.271 2.08718 23.284C2.10542 23.3049 2.19401 23.3935 2.22007 23.1954ZM3.95281 24.7953C3.98929 24.2116 4.05704 23.6228 4.15345 23.0313C4.16647 22.8854 4.12739 22.7681 4.03619 22.6795C3.93978 22.6196 3.87725 22.6535 3.84338 22.7838C3.74697 23.3726 3.67661 23.9615 3.64014 24.5452C3.64014 24.5895 3.64014 24.7119 3.72352 24.8292C3.78605 24.9204 3.92415 25.009 3.95542 24.7953M6.38126 26.3483C6.43337 25.3816 6.55323 24.394 6.73562 23.3961C6.76429 23.0912 6.67309 22.8749 6.44379 22.716C6.20668 22.6144 6.05295 22.6978 5.97478 22.9687C5.78196 23.9615 5.65429 24.9438 5.59957 25.9105C5.59957 25.9913 5.60739 26.1841 5.7507 26.3847C5.93309 26.6401 6.31612 26.799 6.38126 26.3509M8.7628 27.4348C8.78886 26.8433 8.83576 26.244 8.90351 25.6369C8.90611 25.4858 8.84618 25.3842 8.7159 25.3164C8.58302 25.2799 8.50485 25.3268 8.47358 25.4649C8.40583 26.0721 8.35633 26.6714 8.32766 27.2602C8.32766 27.3149 8.33288 27.3697 8.38499 27.4478C8.4814 27.5937 8.72633 27.6849 8.7628 27.4348ZM11.5795 28.339C11.6003 27.7475 11.6342 27.143 11.6837 26.5306C11.6837 26.3795 11.6134 26.2857 11.4727 26.231C11.3293 26.2075 11.2486 26.2649 11.2199 26.4056C11.1678 27.0179 11.1313 27.6198 11.1105 28.2139C11.1131 28.266 11.1183 28.3207 11.173 28.3937C11.2772 28.5292 11.543 28.5917 11.5795 28.339ZM14.5681 28.9565C14.5812 28.3624 14.6046 27.7553 14.6359 27.1404C14.6281 26.9892 14.5551 26.9033 14.4066 26.8642C14.2581 26.8537 14.1747 26.9189 14.1512 27.0622C14.1174 27.6771 14.0913 28.2842 14.0783 28.8783C14.0835 28.9304 14.0861 28.9851 14.146 29.0529C14.2581 29.178 14.5369 29.2144 14.5708 28.9591M17.661 29.2848C17.6662 28.6907 17.6767 28.081 17.6897 27.4635C17.6767 27.3149 17.6011 27.2342 17.4448 27.2081C17.2936 27.2133 17.2103 27.2863 17.1894 27.4296C17.1738 28.0471 17.1607 28.6568 17.1555 29.2509C17.1581 29.2874 17.1634 29.3343 17.1972 29.3812C17.3015 29.5297 17.6272 29.5662 17.661 29.2822M21.0536 29.3109C21.051 28.3337 21.0405 27.3175 21.0223 26.2805C20.9858 25.9835 20.8217 25.8271 20.522 25.8063C20.2224 25.8454 20.0634 26.0095 20.0322 26.3092C20.0348 27.3462 20.0374 28.3624 20.0374 29.3395C20.0452 29.4125 20.0556 29.5037 20.1233 29.5949C20.3579 29.9049 20.9962 29.8502 21.0536 29.3109ZM23.9093 29.0685C23.9015 28.4744 23.8833 27.8673 23.8598 27.2498C23.839 27.1065 23.7556 27.0387 23.6045 27.0413C23.4533 27.0752 23.3752 27.1612 23.3648 27.3097C23.3856 27.9273 23.4012 28.5344 23.409 29.1285C23.4143 29.1649 23.4195 29.2092 23.4533 29.2509C23.5576 29.3786 23.8833 29.3551 23.9093 29.0659M26.9319 28.524C26.9162 27.9299 26.8876 27.3254 26.8433 26.713C26.8172 26.5723 26.7364 26.5124 26.5905 26.528C26.4446 26.5749 26.3716 26.6713 26.3664 26.8199C26.4055 27.4348 26.4342 28.0393 26.4472 28.6334C26.4524 28.6699 26.4576 28.7142 26.4915 28.7532C26.5957 28.8705 26.9058 28.8158 26.9293 28.5266M29.7981 27.6849C29.7772 27.0935 29.7355 26.4916 29.6756 25.8844C29.6469 25.7463 29.5662 25.6942 29.4307 25.7255C29.2952 25.788 29.23 25.8897 29.23 26.0382C29.2873 26.6479 29.3264 27.2498 29.3473 27.8413C29.3525 27.8778 29.3577 27.9194 29.3916 27.9559C29.501 28.0758 29.785 27.9611 29.8007 27.6849M32.4454 26.5567C32.4167 25.9678 32.3646 25.3711 32.289 24.7692C32.2578 24.6337 32.1822 24.5895 32.0571 24.6364C31.9347 24.7119 31.8773 24.8187 31.8826 24.9699C31.9555 25.5744 32.0076 26.1711 32.0337 26.7599C32.0389 26.7938 32.0441 26.8381 32.0754 26.8694C32.177 26.9788 32.435 26.8355 32.4454 26.5567ZM34.9285 25.0428C34.8738 24.0814 34.7383 23.1042 34.5325 22.1245C34.4517 21.8561 34.3136 21.7806 34.1052 21.8926C33.9071 22.062 33.829 22.2887 33.8654 22.5883C34.0635 23.5759 34.1911 24.5556 34.2433 25.5197C34.2537 25.5848 34.2641 25.676 34.3162 25.7333C34.4908 25.9314 34.9181 25.5952 34.9285 25.0428ZM36.5909 23.6071C36.5518 23.0261 36.4841 22.4424 36.3825 21.8561C36.3512 21.7259 36.2965 21.6946 36.2157 21.7597C36.1402 21.8535 36.1089 21.9682 36.1245 22.1141C36.2235 22.7004 36.2913 23.284 36.3304 23.8677C36.3356 23.899 36.3408 23.9459 36.3616 23.9719C36.432 24.0631 36.5961 23.8833 36.5935 23.6071M37.9224 21.9291C37.8807 21.3507 37.8052 20.7748 37.6983 20.199C37.6671 20.0713 37.6254 20.0452 37.568 20.113C37.5159 20.212 37.5003 20.3266 37.5211 20.4726C37.628 21.0484 37.7035 21.6269 37.7452 22.2053C37.7504 22.2522 37.7556 22.3043 37.7817 22.3226C37.839 22.3668 37.9328 22.1845 37.925 21.9265M38.7536 20.1677C38.7119 19.5945 38.6311 19.0238 38.5191 18.461C38.5139 18.4376 38.5061 18.4089 38.4983 18.3881C38.4618 18.3047 38.4357 18.362 38.4253 18.3881C38.3966 18.4897 38.3966 18.6069 38.4201 18.7476C38.5321 19.313 38.6129 19.8837 38.6546 20.4569C38.6624 20.5273 38.665 20.5429 38.6806 20.5716C38.6859 20.5716 38.6937 20.5716 38.6989 20.5716C38.7406 20.5169 38.7614 20.3475 38.7536 20.1651M39.0845 18.3594C39.0402 17.7888 38.9595 17.2285 38.8448 16.6762C38.8292 16.611 38.824 16.5954 38.8109 16.5667C38.8083 16.5667 38.8031 16.5667 38.7979 16.5667C38.7953 16.5771 38.7927 16.5954 38.7901 16.6058C38.7875 16.7074 38.7979 16.8247 38.824 16.9654C38.9386 17.5204 39.0194 18.0832 39.0637 18.6538C39.0689 18.7164 39.0758 18.7546 39.0845 18.7685C39.0949 18.7111 39.0949 18.5392 39.0845 18.362" fill="white"/>
<path d="M18.664 41.7084C18.2002 41.7084 17.7364 41.5859 17.3847 41.3436L11.7356 37.4638C11.0295 36.9791 11.0295 36.1922 11.7356 35.705C12.4418 35.2203 13.5883 35.2203 14.297 35.705L18.6666 38.7041L26.3324 33.4407C27.0385 32.956 28.185 32.956 28.8937 33.4407C29.5998 33.9253 29.5998 34.7122 28.8937 35.1995L19.9486 41.341C19.5942 41.5833 19.1304 41.7058 18.6692 41.7058L18.664 41.7084Z" fill="url(#paint2_linear_184_129)"/>
<path d="M19.8678 1.49314C21.3155 1.49314 22.4891 1.28316 22.4891 1.02413C22.4891 0.765099 21.3155 0.555115 19.8678 0.555115C18.4202 0.555115 17.2466 0.765099 17.2466 1.02413C17.2466 1.28316 18.4202 1.49314 19.8678 1.49314Z" fill="white"/>
<path d="M173.248 30.52C173.248 28.7493 173.6 27.2027 174.304 25.88C175.029 24.536 176.053 23.5013 177.376 22.776C178.699 22.0293 180.224 21.656 181.952 21.656C183.531 21.656 184.949 22.0187 186.208 22.744C187.488 23.448 188.48 24.504 189.184 25.912C189.888 27.2987 190.24 28.952 190.24 30.872V31.768H178.272C178.357 33.0267 178.72 34.0187 179.36 34.744C180 35.4693 180.864 35.832 181.952 35.832C182.656 35.832 183.296 35.64 183.872 35.256C184.469 34.872 184.896 34.36 185.152 33.72L190.016 34.04C189.504 35.6827 188.512 36.984 187.04 37.944C185.589 38.904 183.893 39.384 181.952 39.384C180.224 39.384 178.699 39.0213 177.376 38.296C176.053 37.5493 175.029 36.5147 174.304 35.192C173.6 33.848 173.248 32.2907 173.248 30.52ZM185.376 28.856C185.248 27.64 184.875 26.7333 184.256 26.136C183.637 25.5173 182.869 25.208 181.952 25.208C180.928 25.208 180.096 25.5387 179.456 26.2C178.816 26.84 178.432 27.7253 178.304 28.856H185.376Z" fill="#101010"/>
<path d="M159.245 22.04L159.437 27L158.829 26.808C159.063 24.9947 159.671 23.6827 160.653 22.872C161.655 22.0613 162.914 21.656 164.429 21.656C166.263 21.656 167.693 22.232 168.717 23.384C169.741 24.536 170.253 26.104 170.253 28.088V39H165.453V29.688C165.453 28.2373 165.261 27.1707 164.877 26.488C164.493 25.8053 163.81 25.464 162.829 25.464C161.826 25.464 161.058 25.8267 160.525 26.552C159.991 27.2773 159.725 28.3227 159.725 29.688V39H154.925V22.04H159.245Z" fill="#101010"/>
<path d="M151.131 22.04V39H146.331V22.04H151.131ZM151.195 16.28V19.832H146.235V16.28H151.195Z" fill="#101010"/>
<path d="M140.631 16.28V34.072C140.631 34.4987 140.737 34.8294 140.951 35.064C141.185 35.2987 141.516 35.416 141.943 35.416H143.159V39H140.535C139.105 39 137.964 38.584 137.111 37.752C136.257 36.92 135.831 35.768 135.831 34.296V16.28H140.631Z" fill="#101010"/>
<path d="M115.467 30.52C115.467 28.7493 115.819 27.2027 116.523 25.88C117.248 24.536 118.272 23.5013 119.595 22.776C120.917 22.0293 122.443 21.656 124.171 21.656C125.749 21.656 127.168 22.0187 128.427 22.744C129.707 23.448 130.699 24.504 131.403 25.912C132.107 27.2987 132.459 28.952 132.459 30.872V31.768H120.491C120.576 33.0267 120.939 34.0187 121.579 34.744C122.219 35.4693 123.083 35.832 124.171 35.832C124.875 35.832 125.515 35.64 126.091 35.256C126.688 34.872 127.115 34.36 127.371 33.72L132.235 34.04C131.723 35.6827 130.731 36.984 129.259 37.944C127.808 38.904 126.112 39.384 124.171 39.384C122.443 39.384 120.917 39.0213 119.595 38.296C118.272 37.5493 117.248 36.5147 116.523 35.192C115.819 33.848 115.467 32.2907 115.467 30.52ZM127.595 28.856C127.467 27.64 127.093 26.7333 126.475 26.136C125.856 25.5173 125.088 25.208 124.171 25.208C123.147 25.208 122.315 25.5387 121.675 26.2C121.035 26.84 120.651 27.7253 120.523 28.856H127.595Z" fill="#101010"/>
<path d="M92.2446 22.04L92.3406 24.728C92.7672 23.7467 93.3859 22.9893 94.1966 22.456C95.0286 21.9227 95.9886 21.656 97.0766 21.656C98.2499 21.656 99.2526 21.9653 100.085 22.584C100.917 23.1813 101.525 24.0347 101.909 25.144C102.314 23.992 102.943 23.128 103.797 22.552C104.671 21.9547 105.695 21.656 106.869 21.656C108.021 21.656 109.013 21.9013 109.845 22.392C110.698 22.8827 111.349 23.608 111.797 24.568C112.266 25.528 112.501 26.7013 112.501 28.088V39H107.701V29.688C107.701 28.28 107.498 27.224 107.093 26.52C106.687 25.816 106.09 25.464 105.301 25.464C104.639 25.464 104.085 25.624 103.637 25.944C103.21 26.264 102.879 26.744 102.645 27.384C102.431 28.0027 102.325 28.7707 102.325 29.688V39H98.0686V29.688C98.0686 28.2587 97.8659 27.2027 97.4606 26.52C97.0766 25.816 96.4792 25.464 95.6686 25.464C95.0286 25.464 94.4846 25.624 94.0366 25.944C93.5886 26.264 93.2579 26.744 93.0446 27.384C92.8312 28.0027 92.7246 28.7707 92.7246 29.688V39H87.9246V22.04H92.2446Z" fill="#101010"/>
<path d="M84.1307 22.04V39H79.3307V22.04H84.1307ZM84.1947 16.28V19.832H79.2347V16.28H84.1947Z" fill="#101010"/>
<path d="M76.36 20.376H69.576V39H64.68V20.376H57.864V16.28H76.36V20.376Z" fill="#101010"/>
<defs>
<linearGradient id="paint0_linear_184_129" x1="19.5865" y1="60.5003" x2="19.5865" y2="44.4914" gradientUnits="userSpaceOnUse">
<stop stop-color="#001194"/>
<stop offset="1" stop-color="#517DFA"/>
</linearGradient>
<radialGradient id="paint1_radial_184_129" cx="0" cy="0" r="1" gradientUnits="userSpaceOnUse" gradientTransform="translate(19.5658 0.651502) rotate(90) scale(33.8732 19.9852)">
<stop offset="0.12" stop-color="#E36081"/>
<stop offset="1" stop-color="#1E7FDE"/>
</radialGradient>
<linearGradient id="paint2_linear_184_129" x1="12.3975" y1="37.3934" x2="30.6134" y2="37.3934" gradientUnits="userSpaceOnUse">
<stop stop-color="#1E7FDE"/>
<stop offset="0.41" stop-color="#E36081"/>
<stop offset="1" stop-color="#FFA239"/>
</linearGradient>
</defs>
</svg>
