<?xml version="1.0" encoding="UTF-8"?>
<svg id="Layer_2" data-name="Layer 2" xmlns="http://www.w3.org/2000/svg" xmlns:xlink="http://www.w3.org/1999/xlink" viewBox="0 0 124.19 93">
  <defs>
    <style>
      .cls-1 {
        stroke: #131318;
      }

      .cls-1, .cls-2 {
        fill: none;
        stroke-linecap: round;
        stroke-linejoin: round;
        stroke-width: 3px;
      }

      .cls-2 {
        stroke: url(#linear-gradient);
      }
    </style>
    <linearGradient id="linear-gradient" x1="23.59" y1="47.4" x2="114.79" y2="47.4" gradientUnits="userSpaceOnUse">
      <stop offset="0" stop-color="#e36081"/>
      <stop offset="1" stop-color="#ffa239"/>
    </linearGradient>
  </defs>
  <g id="Layer_1-2" data-name="Layer 1">
    <g>
      <path class="cls-2" d="M54.49,91.5v-29.4c0-2.6,1.03-5.09,2.87-6.93,1.84-1.84,4.33-2.87,6.93-2.87h9.8c2.6,0,5.09,1.03,6.93,2.87s2.87,4.33,2.87,6.93v29.4M34.89,47.4h-9.8L69.19,3.3l44.1,44.1h-9.8v34.3c0,2.6-1.03,5.09-2.87,6.93-1.84,1.84-4.33,2.87-6.93,2.87h-49c-2.6,0-5.09-1.03-6.93-2.87-1.84-1.84-2.87-4.33-2.87-6.93v-34.3Z"/>
      <path class="cls-1" d="M113.29,65.25c1.25,0,2.44.5,3.32,1.38s1.38,2.08,1.38,3.32c0-1.25.5-2.44,1.38-3.32s2.08-1.38,3.32-1.38c-1.25,0-2.44-.5-3.32-1.38s-1.38-2.08-1.38-3.32c0,1.25-.5,2.44-1.38,3.32s-2.08,1.38-3.32,1.38Z"/>
      <path class="cls-1" d="M15.6,29.7c0-3.74,1.49-7.33,4.13-9.97,2.64-2.64,6.23-4.13,9.97-4.13-3.74,0-7.33-1.49-9.97-4.13-2.64-2.64-4.13-6.23-4.13-9.97,0,3.74-1.49,7.33-4.13,9.97-2.64,2.64-6.23,4.13-9.97,4.13,3.74,0,7.33,1.49,9.97,4.13,2.64,2.64,4.13,6.23,4.13,9.97Z"/>
    </g>
  </g>
</svg>