<?xml version="1.0" encoding="UTF-8"?>
<svg id="Layer_2" data-name="Layer 2" xmlns="http://www.w3.org/2000/svg" xmlns:xlink="http://www.w3.org/1999/xlink" viewBox="0 0 93.96 93.62">
  <defs>
    <style>
      .cls-1 {
        stroke: #131318;
        stroke-linejoin: round;
      }

      .cls-1, .cls-2 {
        fill: none;
        stroke-linecap: round;
        stroke-width: 3px;
      }

      .cls-2 {
        stroke: url(#linear-gradient);
        stroke-miterlimit: 10;
      }
    </style>
    <linearGradient id="linear-gradient" x1="22.5" y1="46.81" x2="78.83" y2="46.81" gradientUnits="userSpaceOnUse">
      <stop offset="0" stop-color="#1e7fde"/>
      <stop offset="1" stop-color="#53efe6"/>
    </linearGradient>
  </defs>
  <g id="Layer_1-2" data-name="Layer 1">
    <g>
      <path class="cls-1" d="M85.88,32.84c.87,0,1.71.35,2.33.96s.96,1.46.96,2.33c0-.87.35-1.71.96-2.33s1.46-.96,2.33-.96c-.87,0-1.71-.35-2.33-.96s-.96-1.46-.96-2.33c0,.87-.35,1.71-.96,2.33s-1.46.96-2.33.96Z"/>
      <path class="cls-1" d="M11.38,61.46c0-2.62,1.04-5.13,2.89-6.99,1.85-1.85,4.37-2.89,6.99-2.89-2.62,0-5.13-1.04-6.99-2.89-1.85-1.85-2.89-4.37-2.89-6.99,0,2.62-1.04,5.13-2.89,6.99-1.85,1.85-4.37,2.89-6.99,2.89,2.62,0,5.13,1.04,6.99,2.89,1.85,1.85,2.89,4.37,2.89,6.99Z"/>
      <path class="cls-2" d="M66.35,67.79l-12.48-13.72M53.87,54.07l6.23,27.44-9.98,9.99-9.98-9.99,6.23-27.44M56.48,46.29c-.04-.41-.2-.78-.42-1.12-.24-.34-.54-.6-.89-.78-.36-.2-.75-.29-1.16-.29h-7.77c-.41,0-.8.1-1.16.29-.35.18-.66.45-.89.78-.22.34-.36.71-.42,1.12-.06.39,0,.8.14,1.17l.64,1.73,1.83,4.88h7.49l1.83-4.88.64-1.73c.14-.38.2-.78.14-1.17ZM55.7,49.2h3.86c4.71,0,9.23,1.87,12.56,5.21,3.34,3.33,5.21,7.85,5.21,12.56v8.89M24,75.85v-8.89c0-4.71,1.87-9.23,5.21-12.56,3.34-3.34,7.85-5.21,12.57-5.21h2.77M32.89,19.27c0,4.71,1.87,9.23,5.21,12.57,3.33,3.33,7.85,5.21,12.57,5.21s9.23-1.87,12.57-5.21c3.33-3.33,5.21-7.85,5.21-12.57s-1.87-9.23-5.21-12.57c-3.33-3.33-7.85-5.21-12.57-5.21s-9.23,1.87-12.57,5.21c-3.33,3.33-5.21,7.85-5.21,12.57Z"/>
    </g>
  </g>
</svg>